<svg width="97" height="108" viewBox="0 0 97 108" fill="none" xmlns="http://www.w3.org/2000/svg">
<path d="M94.7176 85.8188C91.1502 73.0186 73.2355 74.4385 65.5043 70.7626C57.773 67.0867 58.9794 54.7533 57.9999 52.6075H39.1362C38.1567 54.7533 39.3647 67.0884 31.6318 70.7626C23.9005 74.4385 5.98582 73.0189 2.4184 85.8188C0.449911 92.8791 0.545182 95.0364 0 102.859C0 102.859 24.5807 108.008 48.0123 108.008C71.444 108.008 97.1357 102.859 97.1357 102.859C96.5925 95.0364 96.6861 92.8794 94.7176 85.8188Z" fill="#E8C59E"/>
<path d="M55.5147 73.5811C63.2459 77.257 81.1606 75.8374 84.728 88.6373C86.6033 95.3606 86.607 97.6396 87.0719 104.597C93.2272 103.642 97.1353 102.859 97.1353 102.859C96.5922 95.0385 96.6858 92.8794 94.7169 85.8188C91.1495 73.0186 73.2348 74.4385 65.5036 70.7626C57.7724 67.0867 58.9787 54.7533 57.9992 52.6075H48.0116C48.0123 52.6075 47.7818 69.9069 55.5147 73.5811Z" fill="#DDB58E"/>
<path d="M15.4736 105.47C24.5176 106.745 36.4052 108.008 48.0123 108.008C59.9894 108.008 72.555 106.663 81.9801 105.348C86.5175 101.35 93.2214 100.479 96.9662 100.327C96.5851 94.4672 96.4556 92.0525 94.7176 85.8192C91.4208 73.991 75.8729 74.3052 67.4307 71.5214C68.4675 77.5814 50.2114 92.0079 48.0123 92.0079C45.8133 92.0079 28.874 77.3905 29.8993 71.4566C21.5032 74.3114 5.74138 73.9015 2.42011 85.8195C0.684204 92.0491 0.552655 94.4634 0.17157 100.319C3.91393 100.452 10.864 101.3 15.4736 105.47Z" fill="#C49A76"/>
<path d="M94.7176 85.8189C91.4207 73.9906 75.8729 74.3049 67.4307 71.5211C67.6735 72.8271 66.9596 74.5165 65.8164 76.2891C73.4998 77.8975 82.4167 80.3481 84.728 88.6394C86.3859 94.5848 86.5802 97.0548 86.9254 102.354C90.5691 100.86 94.4413 100.43 96.9661 100.327C96.585 94.4648 96.4555 92.0505 94.7176 85.8189Z" fill="#B28965"/>
<path d="M36.5994 65.3541C39.7285 68.0526 43.3986 70.728 48.5477 71.5016C53.7137 70.7259 57.3706 67.9953 60.5054 65.2856C57.8985 60.2091 58.7047 54.1548 57.9995 52.6054H39.1358C38.4289 54.1569 39.2179 60.2759 36.5994 65.3541Z" fill="#CCA281"/>
<path d="M66.6863 39.3631C65.9775 43.3043 67.1403 46.8117 69.2834 47.1971C71.4265 47.5826 73.7384 44.7 74.4472 40.7588C75.156 36.8176 73.9933 33.3101 71.8501 32.9247C69.707 32.5393 67.3951 35.4218 66.6863 39.3631Z" fill="#DDB58E"/>
<path d="M25.2282 32.9278C23.085 33.3132 21.9223 36.8207 22.6311 40.7619C23.3399 44.7031 25.6518 47.5857 27.7949 47.2002C29.938 46.8148 31.1008 43.3074 30.392 39.3662C29.6832 35.4249 27.3713 32.5424 25.2282 32.9278Z" fill="#E8C59E"/>
<path d="M48.725 19.0492C48.725 19.0492 26.3908 16.5108 26.1165 23.093C25.8477 29.5416 26.1586 30.4543 26.107 31.9695C25.5812 46.9403 28.6376 67.4487 48.5419 70.4442C69.8945 67.2314 71.8708 44.0093 70.8262 28.9263C70.3065 21.4161 48.725 19.0492 48.725 19.0492Z" fill="#E8C59E"/>
<path d="M72.4414 17.7188C67.9276 -1.82356 50.1406 0.175781 48.5 0.00823975C46.8047 0.128906 27.7839 -1.49187 24.5 17.7287C24 26.5079 25 33.0079 25 33.0079C31.5 32.5079 39.5 24.4785 60 30.5079C68.5 33.0079 72 33.0079 72 33.0079C72 33.0079 73.6289 25.748 72.4414 17.7188Z" fill="#E8C59E"/>
<path d="M48.5419 70.4442C80.5242 65.6325 69.0371 15.924 69.0371 15.924H64.2427C65.5558 36.6877 67.3717 47.7174 59.8331 59.742C53.8608 69.2704 48.5419 70.4442 48.5419 70.4442Z" fill="#DDB58E"/>
<path d="M48.2734 0.0156064C55.8023 0.579044 62.9875 6.02643 64.5 19.0079C65.3012 25.374 64.964 26.3059 65.5 33.0079H72C73.1081 27.1741 73.1572 22.3208 72.391 17.4953C70.9565 11.337 68.8257 8.70911 66.6448 6.32447C61.2327 0.918256 55.0168 -0.149051 48.2734 0.0156064Z" fill="#DDB58E"/>
</svg>
