<svg id="Capa_1" enable-background="new 0 0 497.324 497.324" height="512" viewBox="0 0 497.324 497.324" width="512" xmlns="http://www.w3.org/2000/svg"><path d="m381.291 398.831c-21.414-16.836-50.085-39.567-50.653-41.028h-81.976-81.976c-.568 1.461-29.24 24.192-50.653 41.028-14.564 11.45-23.07 28.949-23.07 47.476v44.334c0 3.697 3.001 6.692 6.698 6.684l149.001-.323 149.001.323c3.697.008 6.698-2.987 6.698-6.684v-44.334c0-18.527-8.506-36.026-23.07-47.476z" fill="#7ca1b1"/><path d="m202.314 266.832h92.105v144.597h-92.105z" fill="#ffbd86"/><path d="m202.314 342.552c14.373 6.226 30.213 9.685 46.848 9.685 16.023 0 31.309-3.209 45.257-9.009v-76.396h-92.105z" fill="#f6a96c"/><path d="m206.718 368.725 36.994 26.479c2.96 2.119 6.94 2.119 9.9 0l36.994-26.479h15.047l-56.991 128.276-57.582-103.949z" fill="#fff9e2"/><g fill="#678d98"><path d="m281.035 328.357-6.827-7.595 16.398-16.412 12.519 11.087c21.006 21.554 33.841 49.757 36.297 79.753l.734 8.965c.267 3.259-2.209 6.095-5.474 6.271l-12.797.69-73.222 85.885 41.944-128.276c4.533-14.19.85-29.724-9.572-40.368z"/><path d="m216.289 328.357 6.827-7.595-16.398-16.412-12.519 11.087c-21.006 21.554-33.841 49.757-36.297 79.753l-.734 8.965c-.267 3.259 2.209 6.095 5.474 6.271l12.797.69 73.222 85.885-41.944-128.276c-4.533-14.19-.85-29.724 9.572-40.368z"/><path d="m116.033 398.831c1.147-.901 2.318-1.823 3.501-2.754l23.529 41.241c2.423 4.247 3.697 9.053 3.697 13.942v45.962l-47.099.102c-3.697.008-6.698-2.987-6.698-6.684v-44.334c0-18.526 8.506-36.025 23.07-47.475z"/></g><path d="m126.861 191.268-11.657-92.745c-3.167-25.195 11.231-49.308 34.913-58.472 19.606-25.266 49.79-40.051 81.771-40.051h33.549c31.981 0 62.165 14.784 81.77 40.051 23.682 9.164 38.079 33.277 34.913 58.472l-11.657 92.745-2.963 15.697h-234.19z" fill="#918291"/><path d="m163.835 98.523c-3.167-25.194 11.231-49.308 34.913-58.472 18.056-23.271 45.087-37.639 74.229-39.766-2.5-.182-5.014-.285-7.541-.285h-33.549c-31.98 0-62.165 14.785-81.77 40.051-23.681 9.164-38.079 33.277-34.913 58.472l11.656 92.745 6.449 15.697h48.63l-6.448-15.697z" fill="#837484"/><g><path d="m349.206 237.961h6.66c13.581 0 24.866-10.47 25.881-24.013 1.129-15.057-10.783-27.895-25.881-27.895h-7.445-8.245v51.908z" fill="#ffbd86"/><path d="m148.903 186.053h-6.445c-15.099 0-27.011 12.839-25.881 27.895 1.016 13.543 12.3 24.013 25.881 24.013h7.66 14.487v-51.908z" fill="#f6a96c"/><path d="m201.137 123.088c-13.997-8.617-32.271-4.977-41.899 8.345l-2.387 3.304c-3.867 5.351-5.948 11.785-5.948 18.387v21.652 59.203c0 54.267 43.992 98.259 98.259 98.259 54.267 0 98.259-43.992 98.259-98.259v-59.203-21.652c0-6.602-2.081-13.036-5.948-18.387l-2.492-3.448c-9.584-13.262-27.748-16.938-41.735-8.445l-.882.535c-29.282 17.78-66.054 17.667-95.227-.291z" fill="#ffe5c2"/><path d="m381.291 398.831c-1.147-.901-2.318-1.823-3.501-2.754l-23.529 41.241c-2.423 4.247-3.697 9.053-3.697 13.942v45.962l47.099.102c3.697.008 6.698-2.987 6.698-6.684v-44.334c0-18.526-8.506-36.025-23.07-47.475z" fill="#678d98"/></g><path d="m191.08 233.978v-59.203-21.652c0-6.602 2.082-13.035 5.948-18.386l2.387-3.304c1.669-2.309 3.602-4.32 5.723-6.035-1.347-.738-2.685-1.5-4.002-2.311-13.997-8.617-32.271-4.977-41.898 8.345l-2.387 3.304c-3.867 5.351-5.948 11.785-5.948 18.386v21.652 59.203c0 54.267 43.992 98.259 98.259 98.259 6.885 0 13.603-.711 20.088-2.059-44.631-9.271-78.17-48.817-78.17-96.199z" fill="#fed2a4"/><path d="m341.473 134.736-2.492-3.448c-9.584-13.262-27.749-16.938-41.735-8.445l-.882.535c-29.282 17.78-66.054 17.668-95.227-.291-13.997-8.617-32.271-4.977-41.898 8.345l-2.387 3.304c-3.867 5.351-5.948 11.785-5.948 18.386v21.652 10.747c0-6.602 2.082-13.036 5.948-18.387l2.387-3.304c9.627-13.322 27.901-16.961 41.898-8.345 29.173 17.959 65.945 18.071 95.227.291l.882-.535c13.986-8.493 32.151-4.817 41.735 8.445l2.492 3.448c3.867 5.351 5.948 11.785 5.948 18.387v-10.747-21.652c0-6.601-2.081-13.035-5.948-18.386z" fill="#fed2a4"/></svg>